# xmcd
#
# Track frame offsets:
#	150
#	13985
#	27024
#	37740
#	51086
#	65574
#	83011
#	100820
#	117414
#	131930
#	147611
#	157222
#	169444
#
# Disc length: 2421 seconds
#
# Revision: 1
# Processed by: cddbd v1.5PL3 Copyright (c) Steve Scherf et al.
# Submitted via: audiograbber 1.80
#
DISCID=ba09730d
DTITLE=Hems Harlem - Blues and Boogie from Austria
DYEAR=1900
DGENRE=
TTITLE0=Hey Gyp
TTITLE1=Mail order
TTITLE2=Hems Harlem Boogie
TTITLE3=Baby what you want me to do
TTITLE4=I didnt know what time it was
TTITLE5=Sweet home Chicago
TTITLE6=You got to move
TTITLE7=Sabre Dance
TTITLE8=Well i dont know
TTITLE9=Hear me calling
TTITLE10=If you be my baby
TTITLE11=Key to the highway
TTITLE12=Room to move
EXTD=
EXTT0=
EXTT1=
EXTT2=
EXTT3=
EXTT4=
EXTT5=
EXTT6=
EXTT7=
EXTT8=
EXTT9=
EXTT10=
EXTT11=
EXTT12=
PLAYORDER=
